<?xml version="1.0" encoding="utf-8" standalone="no"?>
<!DOCTYPE svg PUBLIC "-//W3C//DTD SVG 1.1//EN"
  "http://www.w3.org/Graphics/SVG/1.1/DTD/svg11.dtd">
<svg xmlns:xlink="http://www.w3.org/1999/xlink" width="918.283125pt" height="510.690928pt" viewBox="0 0 918.283125 510.690928" xmlns="http://www.w3.org/2000/svg" version="1.1">
 <metadata>
  <rdf:RDF xmlns:dc="http://purl.org/dc/elements/1.1/" xmlns:cc="http://creativecommons.org/ns#" xmlns:rdf="http://www.w3.org/1999/02/22-rdf-syntax-ns#">
   <cc:Work>
    <dc:type rdf:resource="http://purl.org/dc/dcmitype/StillImage"/>
    <dc:date>2025-03-20T16:22:15.901297</dc:date>
    <dc:format>image/svg+xml</dc:format>
    <dc:creator>
     <cc:Agent>
      <dc:title>Matplotlib v3.8.1, https://matplotlib.org/</dc:title>
     </cc:Agent>
    </dc:creator>
   </cc:Work>
  </rdf:RDF>
 </metadata>
 <defs>
  <style type="text/css">*{stroke-linejoin: round; stroke-linecap: butt}</style>
 </defs>
 <g id="figure_1">
  <g id="patch_1">
   <path d="M 0 510.690928 
L 918.283125 510.690928 
L 918.283125 0 
L 0 0 
z
" style="fill: #ffffff"/>
  </g>
  <g id="axes_1">
   <g id="patch_2">
    <path d="M 90.023125 433.51625 
L 673.223125 433.51625 
L 673.223125 45.43625 
L 90.023125 45.43625 
z
" style="fill: #ffffff"/>
   </g>
   <g id="patch_3">
    <path d="M 116.532216 433.51625 
L 122.439534 433.51625 
L 122.439534 91.374199 
L 116.532216 91.374199 
z
" clip-path="url(#pc87ebe54b5)" style="fill: #f08080; opacity: 0.7"/>
   </g>
   <g id="patch_4">
    <path d="M 123.916364 433.51625 
L 129.823682 433.51625 
L 129.823682 91.374199 
L 123.916364 91.374199 
z
" clip-path="url(#pc87ebe54b5)" style="fill: #f08080; opacity: 0.7"/>
   </g>
   <g id="patch_5">
    <path d="M 131.300512 433.51625 
L 137.20783 433.51625 
L 137.20783 91.374199 
L 131.300512 91.374199 
z
" clip-path="url(#pc87ebe54b5)" style="fill: #f08080; opacity: 0.7"/>
   </g>
   <g id="patch_6">
    <path d="M 138.68466 433.51625 
L 144.591978 433.51625 
L 144.591978 91.374199 
L 138.68466 91.374199 
z
" clip-path="url(#pc87ebe54b5)" style="fill: #f08080; opacity: 0.7"/>
   </g>
   <g id="patch_7">
    <path d="M 146.068807 433.51625 
L 151.976126 433.51625 
L 151.976126 91.374199 
L 146.068807 91.374199 
z
" clip-path="url(#pc87ebe54b5)" style="fill: #f08080; opacity: 0.7"/>
   </g>
   <g id="patch_8">
    <path d="M 153.452955 433.51625 
L 159.360274 433.51625 
L 159.360274 91.374199 
L 153.452955 91.374199 
z
" clip-path="url(#pc87ebe54b5)" style="fill: #f08080; opacity: 0.7"/>
   </g>
   <g id="patch_9">
    <path d="M 160.837103 433.51625 
L 166.744422 433.51625 
L 166.744422 91.374199 
L 160.837103 91.374199 
z
" clip-path="url(#pc87ebe54b5)" style="fill: #f08080; opacity: 0.7"/>
   </g>
   <g id="patch_10">
    <path d="M 168.221251 433.51625 
L 174.128569 433.51625 
L 174.128569 91.374199 
L 168.221251 91.374199 
z
" clip-path="url(#pc87ebe54b5)" style="fill: #f08080; opacity: 0.7"/>
   </g>
   <g id="patch_11">
    <path d="M 175.605399 433.51625 
L 181.512717 433.51625 
L 181.512717 91.374199 
L 175.605399 91.374199 
z
" clip-path="url(#pc87ebe54b5)" style="fill: #f08080; opacity: 0.7"/>
   </g>
   <g id="patch_12">
    <path d="M 182.989547 433.51625 
L 188.896865 433.51625 
L 188.896865 91.374199 
L 182.989547 91.374199 
z
" clip-path="url(#pc87ebe54b5)" style="fill: #f08080; opacity: 0.7"/>
   </g>
   <g id="patch_13">
    <path d="M 190.373695 433.51625 
L 196.281013 433.51625 
L 196.281013 91.374199 
L 190.373695 91.374199 
z
" clip-path="url(#pc87ebe54b5)" style="fill: #f08080; opacity: 0.7"/>
   </g>
   <g id="patch_14">
    <path d="M 197.757843 433.51625 
L 203.665161 433.51625 
L 203.665161 91.374199 
L 197.757843 91.374199 
z
" clip-path="url(#pc87ebe54b5)" style="fill: #f08080; opacity: 0.7"/>
   </g>
   <g id="patch_15">
    <path d="M 205.141991 433.51625 
L 211.049309 433.51625 
L 211.049309 91.374199 
L 205.141991 91.374199 
z
" clip-path="url(#pc87ebe54b5)" style="fill: #f08080; opacity: 0.7"/>
   </g>
   <g id="patch_16">
    <path d="M 212.526138 433.51625 
L 218.433457 433.51625 
L 218.433457 91.374199 
L 212.526138 91.374199 
z
" clip-path="url(#pc87ebe54b5)" style="fill: #f08080; opacity: 0.7"/>
   </g>
   <g id="patch_17">
    <path d="M 219.910286 433.51625 
L 225.817605 433.51625 
L 225.817605 91.374199 
L 219.910286 91.374199 
z
" clip-path="url(#pc87ebe54b5)" style="fill: #f08080; opacity: 0.7"/>
   </g>
   <g id="patch_18">
    <path d="M 227.294434 433.51625 
L 233.201753 433.51625 
L 233.201753 91.374199 
L 227.294434 91.374199 
z
" clip-path="url(#pc87ebe54b5)" style="fill: #f08080; opacity: 0.7"/>
   </g>
   <g id="patch_19">
    <path d="M 234.678582 433.51625 
L 240.5859 433.51625 
L 240.5859 91.374199 
L 234.678582 91.374199 
z
" clip-path="url(#pc87ebe54b5)" style="fill: #f08080; opacity: 0.7"/>
   </g>
   <g id="patch_20">
    <path d="M 242.06273 433.51625 
L 247.970048 433.51625 
L 247.970048 91.374199 
L 242.06273 91.374199 
z
" clip-path="url(#pc87ebe54b5)" style="fill: #f08080; opacity: 0.7"/>
   </g>
   <g id="patch_21">
    <path d="M 249.446878 433.51625 
L 255.354196 433.51625 
L 255.354196 91.374199 
L 249.446878 91.374199 
z
" clip-path="url(#pc87ebe54b5)" style="fill: #f08080; opacity: 0.7"/>
   </g>
   <g id="patch_22">
    <path d="M 256.831026 433.51625 
L 262.738344 433.51625 
L 262.738344 91.374199 
L 256.831026 91.374199 
z
" clip-path="url(#pc87ebe54b5)" style="fill: #f08080; opacity: 0.7"/>
   </g>
   <g id="patch_23">
    <path d="M 264.215174 433.51625 
L 270.122492 433.51625 
L 270.122492 91.374199 
L 264.215174 91.374199 
z
" clip-path="url(#pc87ebe54b5)" style="fill: #f08080; opacity: 0.7"/>
   </g>
   <g id="patch_24">
    <path d="M 271.599322 433.51625 
L 277.50664 433.51625 
L 277.50664 91.374199 
L 271.599322 91.374199 
z
" clip-path="url(#pc87ebe54b5)" style="fill: #f08080; opacity: 0.7"/>
   </g>
   <g id="patch_25">
    <path d="M 278.983469 433.51625 
L 284.890788 433.51625 
L 284.890788 91.374199 
L 278.983469 91.374199 
z
" clip-path="url(#pc87ebe54b5)" style="fill: #f08080; opacity: 0.7"/>
   </g>
   <g id="patch_26">
    <path d="M 286.367617 433.51625 
L 292.274936 433.51625 
L 292.274936 91.374199 
L 286.367617 91.374199 
z
" clip-path="url(#pc87ebe54b5)" style="fill: #f08080; opacity: 0.7"/>
   </g>
   <g id="patch_27">
    <path d="M 293.751765 433.51625 
L 299.659083 433.51625 
L 299.659083 77.016019 
L 293.751765 77.016019 
z
" clip-path="url(#pc87ebe54b5)" style="fill: #f08080; opacity: 0.7"/>
   </g>
   <g id="patch_28">
    <path d="M 301.135913 433.51625 
L 307.043231 433.51625 
L 307.043231 77.016019 
L 301.135913 77.016019 
z
" clip-path="url(#pc87ebe54b5)" style="fill: #f08080; opacity: 0.7"/>
   </g>
   <g id="patch_29">
    <path d="M 308.520061 433.51625 
L 314.427379 433.51625 
L 314.427379 77.016019 
L 308.520061 77.016019 
z
" clip-path="url(#pc87ebe54b5)" style="fill: #f08080; opacity: 0.7"/>
   </g>
   <g id="patch_30">
    <path d="M 315.904209 433.51625 
L 321.811527 433.51625 
L 321.811527 77.016019 
L 315.904209 77.016019 
z
" clip-path="url(#pc87ebe54b5)" style="fill: #f08080; opacity: 0.7"/>
   </g>
   <g id="patch_31">
    <path d="M 323.288357 433.51625 
L 329.195675 433.51625 
L 329.195675 77.016019 
L 323.288357 77.016019 
z
" clip-path="url(#pc87ebe54b5)" style="fill: #f08080; opacity: 0.7"/>
   </g>
   <g id="patch_32">
    <path d="M 330.672505 433.51625 
L 336.579823 433.51625 
L 336.579823 77.016019 
L 330.672505 77.016019 
z
" clip-path="url(#pc87ebe54b5)" style="fill: #f08080; opacity: 0.7"/>
   </g>
   <g id="patch_33">
    <path d="M 338.056652 433.51625 
L 343.963971 433.51625 
L 343.963971 77.016019 
L 338.056652 77.016019 
z
" clip-path="url(#pc87ebe54b5)" style="fill: #f08080; opacity: 0.7"/>
   </g>
   <g id="patch_34">
    <path d="M 345.4408 433.51625 
L 351.348119 433.51625 
L 351.348119 77.016019 
L 345.4408 77.016019 
z
" clip-path="url(#pc87ebe54b5)" style="fill: #f08080; opacity: 0.7"/>
   </g>
   <g id="patch_35">
    <path d="M 352.824948 433.51625 
L 358.732267 433.51625 
L 358.732267 77.016019 
L 352.824948 77.016019 
z
" clip-path="url(#pc87ebe54b5)" style="fill: #f08080; opacity: 0.7"/>
   </g>
   <g id="patch_36">
    <path d="M 360.209096 433.51625 
L 366.116414 433.51625 
L 366.116414 77.016019 
L 360.209096 77.016019 
z
" clip-path="url(#pc87ebe54b5)" style="fill: #f08080; opacity: 0.7"/>
   </g>
   <g id="patch_37">
    <path d="M 367.593244 433.51625 
L 373.500562 433.51625 
L 373.500562 77.016019 
L 367.593244 77.016019 
z
" clip-path="url(#pc87ebe54b5)" style="fill: #f08080; opacity: 0.7"/>
   </g>
   <g id="patch_38">
    <path d="M 374.977392 433.51625 
L 380.88471 433.51625 
L 380.88471 77.016019 
L 374.977392 77.016019 
z
" clip-path="url(#pc87ebe54b5)" style="fill: #f08080; opacity: 0.7"/>
   </g>
   <g id="patch_39">
    <path d="M 382.36154 433.51625 
L 388.268858 433.51625 
L 388.268858 77.016019 
L 382.36154 77.016019 
z
" clip-path="url(#pc87ebe54b5)" style="fill: #f08080; opacity: 0.7"/>
   </g>
   <g id="patch_40">
    <path d="M 389.745688 433.51625 
L 395.653006 433.51625 
L 395.653006 77.016019 
L 389.745688 77.016019 
z
" clip-path="url(#pc87ebe54b5)" style="fill: #f08080; opacity: 0.7"/>
   </g>
   <g id="patch_41">
    <path d="M 397.129836 433.51625 
L 403.037154 433.51625 
L 403.037154 77.016019 
L 397.129836 77.016019 
z
" clip-path="url(#pc87ebe54b5)" style="fill: #f08080; opacity: 0.7"/>
   </g>
   <g id="patch_42">
    <path d="M 404.513983 433.51625 
L 410.421302 433.51625 
L 410.421302 77.016019 
L 404.513983 77.016019 
z
" clip-path="url(#pc87ebe54b5)" style="fill: #f08080; opacity: 0.7"/>
   </g>
   <g id="patch_43">
    <path d="M 411.898131 433.51625 
L 417.80545 433.51625 
L 417.80545 77.016019 
L 411.898131 77.016019 
z
" clip-path="url(#pc87ebe54b5)" style="fill: #f08080; opacity: 0.7"/>
   </g>
   <g id="patch_44">
    <path d="M 419.282279 433.51625 
L 425.189598 433.51625 
L 425.189598 77.016019 
L 419.282279 77.016019 
z
" clip-path="url(#pc87ebe54b5)" style="fill: #f08080; opacity: 0.7"/>
   </g>
   <g id="patch_45">
    <path d="M 426.666427 433.51625 
L 432.573745 433.51625 
L 432.573745 77.016019 
L 426.666427 77.016019 
z
" clip-path="url(#pc87ebe54b5)" style="fill: #f08080; opacity: 0.7"/>
   </g>
   <g id="patch_46">
    <path d="M 434.050575 433.51625 
L 439.957893 433.51625 
L 439.957893 77.016019 
L 434.050575 77.016019 
z
" clip-path="url(#pc87ebe54b5)" style="fill: #f08080; opacity: 0.7"/>
   </g>
   <g id="patch_47">
    <path d="M 441.434723 433.51625 
L 447.342041 433.51625 
L 447.342041 77.016019 
L 441.434723 77.016019 
z
" clip-path="url(#pc87ebe54b5)" style="fill: #f08080; opacity: 0.7"/>
   </g>
   <g id="patch_48">
    <path d="M 448.818871 433.51625 
L 454.726189 433.51625 
L 454.726189 77.016019 
L 448.818871 77.016019 
z
" clip-path="url(#pc87ebe54b5)" style="fill: #f08080; opacity: 0.7"/>
   </g>
   <g id="patch_49">
    <path d="M 456.203019 433.51625 
L 462.110337 433.51625 
L 462.110337 77.016019 
L 456.203019 77.016019 
z
" clip-path="url(#pc87ebe54b5)" style="fill: #f08080; opacity: 0.7"/>
   </g>
   <g id="patch_50">
    <path d="M 463.587167 433.51625 
L 469.494485 433.51625 
L 469.494485 77.016019 
L 463.587167 77.016019 
z
" clip-path="url(#pc87ebe54b5)" style="fill: #f08080; opacity: 0.7"/>
   </g>
   <g id="patch_51">
    <path d="M 470.971314 433.51625 
L 476.878633 433.51625 
L 476.878633 63.91625 
L 470.971314 63.91625 
z
" clip-path="url(#pc87ebe54b5)" style="fill: #f08080; opacity: 0.7"/>
   </g>
   <g id="patch_52">
    <path d="M 478.355462 433.51625 
L 484.262781 433.51625 
L 484.262781 63.91625 
L 478.355462 63.91625 
z
" clip-path="url(#pc87ebe54b5)" style="fill: #f08080; opacity: 0.7"/>
   </g>
   <g id="patch_53">
    <path d="M 485.73961 433.51625 
L 491.646928 433.51625 
L 491.646928 63.91625 
L 485.73961 63.91625 
z
" clip-path="url(#pc87ebe54b5)" style="fill: #f08080; opacity: 0.7"/>
   </g>
   <g id="patch_54">
    <path d="M 493.123758 433.51625 
L 499.031076 433.51625 
L 499.031076 63.91625 
L 493.123758 63.91625 
z
" clip-path="url(#pc87ebe54b5)" style="fill: #f08080; opacity: 0.7"/>
   </g>
   <g id="patch_55">
    <path d="M 500.507906 433.51625 
L 506.415224 433.51625 
L 506.415224 63.91625 
L 500.507906 63.91625 
z
" clip-path="url(#pc87ebe54b5)" style="fill: #f08080; opacity: 0.7"/>
   </g>
   <g id="patch_56">
    <path d="M 507.892054 433.51625 
L 513.799372 433.51625 
L 513.799372 63.91625 
L 507.892054 63.91625 
z
" clip-path="url(#pc87ebe54b5)" style="fill: #f08080; opacity: 0.7"/>
   </g>
   <g id="patch_57">
    <path d="M 515.276202 433.51625 
L 521.18352 433.51625 
L 521.18352 63.91625 
L 515.276202 63.91625 
z
" clip-path="url(#pc87ebe54b5)" style="fill: #f08080; opacity: 0.7"/>
   </g>
   <g id="patch_58">
    <path d="M 522.66035 433.51625 
L 528.567668 433.51625 
L 528.567668 63.91625 
L 522.66035 63.91625 
z
" clip-path="url(#pc87ebe54b5)" style="fill: #f08080; opacity: 0.7"/>
   </g>
   <g id="patch_59">
    <path d="M 530.044497 433.51625 
L 535.951816 433.51625 
L 535.951816 63.91625 
L 530.044497 63.91625 
z
" clip-path="url(#pc87ebe54b5)" style="fill: #f08080; opacity: 0.7"/>
   </g>
   <g id="patch_60">
    <path d="M 537.428645 433.51625 
L 543.335964 433.51625 
L 543.335964 63.91625 
L 537.428645 63.91625 
z
" clip-path="url(#pc87ebe54b5)" style="fill: #f08080; opacity: 0.7"/>
   </g>
   <g id="patch_61">
    <path d="M 544.812793 433.51625 
L 550.720112 433.51625 
L 550.720112 63.91625 
L 544.812793 63.91625 
z
" clip-path="url(#pc87ebe54b5)" style="fill: #f08080; opacity: 0.7"/>
   </g>
   <g id="patch_62">
    <path d="M 552.196941 433.51625 
L 558.104259 433.51625 
L 558.104259 63.91625 
L 552.196941 63.91625 
z
" clip-path="url(#pc87ebe54b5)" style="fill: #f08080; opacity: 0.7"/>
   </g>
   <g id="patch_63">
    <path d="M 559.581089 433.51625 
L 565.488407 433.51625 
L 565.488407 63.91625 
L 559.581089 63.91625 
z
" clip-path="url(#pc87ebe54b5)" style="fill: #f08080; opacity: 0.7"/>
   </g>
   <g id="patch_64">
    <path d="M 566.965237 433.51625 
L 572.872555 433.51625 
L 572.872555 63.91625 
L 566.965237 63.91625 
z
" clip-path="url(#pc87ebe54b5)" style="fill: #f08080; opacity: 0.7"/>
   </g>
   <g id="patch_65">
    <path d="M 574.349385 433.51625 
L 580.256703 433.51625 
L 580.256703 63.91625 
L 574.349385 63.91625 
z
" clip-path="url(#pc87ebe54b5)" style="fill: #f08080; opacity: 0.7"/>
   </g>
   <g id="patch_66">
    <path d="M 581.733533 433.51625 
L 587.640851 433.51625 
L 587.640851 63.91625 
L 581.733533 63.91625 
z
" clip-path="url(#pc87ebe54b5)" style="fill: #f08080; opacity: 0.7"/>
   </g>
   <g id="patch_67">
    <path d="M 589.117681 433.51625 
L 595.024999 433.51625 
L 595.024999 63.91625 
L 589.117681 63.91625 
z
" clip-path="url(#pc87ebe54b5)" style="fill: #f08080; opacity: 0.7"/>
   </g>
   <g id="patch_68">
    <path d="M 596.501828 433.51625 
L 602.409147 433.51625 
L 602.409147 63.91625 
L 596.501828 63.91625 
z
" clip-path="url(#pc87ebe54b5)" style="fill: #f08080; opacity: 0.7"/>
   </g>
   <g id="patch_69">
    <path d="M 603.885976 433.51625 
L 609.793295 433.51625 
L 609.793295 63.91625 
L 603.885976 63.91625 
z
" clip-path="url(#pc87ebe54b5)" style="fill: #f08080; opacity: 0.7"/>
   </g>
   <g id="patch_70">
    <path d="M 611.270124 433.51625 
L 617.177443 433.51625 
L 617.177443 63.91625 
L 611.270124 63.91625 
z
" clip-path="url(#pc87ebe54b5)" style="fill: #f08080; opacity: 0.7"/>
   </g>
   <g id="patch_71">
    <path d="M 618.654272 433.51625 
L 624.56159 433.51625 
L 624.56159 63.91625 
L 618.654272 63.91625 
z
" clip-path="url(#pc87ebe54b5)" style="fill: #f08080; opacity: 0.7"/>
   </g>
   <g id="patch_72">
    <path d="M 626.03842 433.51625 
L 631.945738 433.51625 
L 631.945738 63.91625 
L 626.03842 63.91625 
z
" clip-path="url(#pc87ebe54b5)" style="fill: #f08080; opacity: 0.7"/>
   </g>
   <g id="patch_73">
    <path d="M 633.422568 433.51625 
L 639.329886 433.51625 
L 639.329886 63.91625 
L 633.422568 63.91625 
z
" clip-path="url(#pc87ebe54b5)" style="fill: #f08080; opacity: 0.7"/>
   </g>
   <g id="patch_74">
    <path d="M 640.806716 433.51625 
L 646.714034 433.51625 
L 646.714034 63.91625 
L 640.806716 63.91625 
z
" clip-path="url(#pc87ebe54b5)" style="fill: #f08080; opacity: 0.7"/>
   </g>
   <g id="patch_75">
    <path d="M 116.532216 433.51625 
L 122.439534 433.51625 
L 122.439534 131.514211 
L 116.532216 131.514211 
z
" clip-path="url(#pc87ebe54b5)" style="fill: #4682b4; opacity: 0.7"/>
   </g>
   <g id="patch_76">
    <path d="M 123.916364 433.51625 
L 129.823682 433.51625 
L 129.823682 131.514211 
L 123.916364 131.514211 
z
" clip-path="url(#pc87ebe54b5)" style="fill: #4682b4; opacity: 0.7"/>
   </g>
   <g id="patch_77">
    <path d="M 131.300512 433.51625 
L 137.20783 433.51625 
L 137.20783 131.514211 
L 131.300512 131.514211 
z
" clip-path="url(#pc87ebe54b5)" style="fill: #4682b4; opacity: 0.7"/>
   </g>
   <g id="patch_78">
    <path d="M 138.68466 433.51625 
L 144.591978 433.51625 
L 144.591978 131.514211 
L 138.68466 131.514211 
z
" clip-path="url(#pc87ebe54b5)" style="fill: #4682b4; opacity: 0.7"/>
   </g>
   <g id="patch_79">
    <path d="M 146.068807 433.51625 
L 151.976126 433.51625 
L 151.976126 131.514211 
L 146.068807 131.514211 
z
" clip-path="url(#pc87ebe54b5)" style="fill: #4682b4; opacity: 0.7"/>
   </g>
   <g id="patch_80">
    <path d="M 153.452955 433.51625 
L 159.360274 433.51625 
L 159.360274 131.514211 
L 153.452955 131.514211 
z
" clip-path="url(#pc87ebe54b5)" style="fill: #4682b4; opacity: 0.7"/>
   </g>
   <g id="patch_81">
    <path d="M 160.837103 433.51625 
L 166.744422 433.51625 
L 166.744422 127.981604 
L 160.837103 127.981604 
z
" clip-path="url(#pc87ebe54b5)" style="fill: #4682b4; opacity: 0.7"/>
   </g>
   <g id="patch_82">
    <path d="M 168.221251 433.51625 
L 174.128569 433.51625 
L 174.128569 127.981604 
L 168.221251 127.981604 
z
" clip-path="url(#pc87ebe54b5)" style="fill: #4682b4; opacity: 0.7"/>
   </g>
   <g id="patch_83">
    <path d="M 175.605399 433.51625 
L 181.512717 433.51625 
L 181.512717 127.981604 
L 175.605399 127.981604 
z
" clip-path="url(#pc87ebe54b5)" style="fill: #4682b4; opacity: 0.7"/>
   </g>
   <g id="patch_84">
    <path d="M 182.989547 433.51625 
L 188.896865 433.51625 
L 188.896865 127.981604 
L 182.989547 127.981604 
z
" clip-path="url(#pc87ebe54b5)" style="fill: #4682b4; opacity: 0.7"/>
   </g>
   <g id="patch_85">
    <path d="M 190.373695 433.51625 
L 196.281013 433.51625 
L 196.281013 127.981604 
L 190.373695 127.981604 
z
" clip-path="url(#pc87ebe54b5)" style="fill: #4682b4; opacity: 0.7"/>
   </g>
   <g id="patch_86">
    <path d="M 197.757843 433.51625 
L 203.665161 433.51625 
L 203.665161 127.981604 
L 197.757843 127.981604 
z
" clip-path="url(#pc87ebe54b5)" style="fill: #4682b4; opacity: 0.7"/>
   </g>
   <g id="patch_87">
    <path d="M 205.141991 433.51625 
L 211.049309 433.51625 
L 211.049309 126.311506 
L 205.141991 126.311506 
z
" clip-path="url(#pc87ebe54b5)" style="fill: #4682b4; opacity: 0.7"/>
   </g>
   <g id="patch_88">
    <path d="M 212.526138 433.51625 
L 218.433457 433.51625 
L 218.433457 126.311506 
L 212.526138 126.311506 
z
" clip-path="url(#pc87ebe54b5)" style="fill: #4682b4; opacity: 0.7"/>
   </g>
   <g id="patch_89">
    <path d="M 219.910286 433.51625 
L 225.817605 433.51625 
L 225.817605 126.311506 
L 219.910286 126.311506 
z
" clip-path="url(#pc87ebe54b5)" style="fill: #4682b4; opacity: 0.7"/>
   </g>
   <g id="patch_90">
    <path d="M 227.294434 433.51625 
L 233.201753 433.51625 
L 233.201753 126.311506 
L 227.294434 126.311506 
z
" clip-path="url(#pc87ebe54b5)" style="fill: #4682b4; opacity: 0.7"/>
   </g>
   <g id="patch_91">
    <path d="M 234.678582 433.51625 
L 240.5859 433.51625 
L 240.5859 126.311506 
L 234.678582 126.311506 
z
" clip-path="url(#pc87ebe54b5)" style="fill: #4682b4; opacity: 0.7"/>
   </g>
   <g id="patch_92">
    <path d="M 242.06273 433.51625 
L 247.970048 433.51625 
L 247.970048 126.311506 
L 242.06273 126.311506 
z
" clip-path="url(#pc87ebe54b5)" style="fill: #4682b4; opacity: 0.7"/>
   </g>
   <g id="patch_93">
    <path d="M 249.446878 433.51625 
L 255.354196 433.51625 
L 255.354196 121.019906 
L 249.446878 121.019906 
z
" clip-path="url(#pc87ebe54b5)" style="fill: #4682b4; opacity: 0.7"/>
   </g>
   <g id="patch_94">
    <path d="M 256.831026 433.51625 
L 262.738344 433.51625 
L 262.738344 121.019906 
L 256.831026 121.019906 
z
" clip-path="url(#pc87ebe54b5)" style="fill: #4682b4; opacity: 0.7"/>
   </g>
   <g id="patch_95">
    <path d="M 264.215174 433.51625 
L 270.122492 433.51625 
L 270.122492 121.019906 
L 264.215174 121.019906 
z
" clip-path="url(#pc87ebe54b5)" style="fill: #4682b4; opacity: 0.7"/>
   </g>
   <g id="patch_96">
    <path d="M 271.599322 433.51625 
L 277.50664 433.51625 
L 277.50664 121.019906 
L 271.599322 121.019906 
z
" clip-path="url(#pc87ebe54b5)" style="fill: #4682b4; opacity: 0.7"/>
   </g>
   <g id="patch_97">
    <path d="M 278.983469 433.51625 
L 284.890788 433.51625 
L 284.890788 121.019906 
L 278.983469 121.019906 
z
" clip-path="url(#pc87ebe54b5)" style="fill: #4682b4; opacity: 0.7"/>
   </g>
   <g id="patch_98">
    <path d="M 286.367617 433.51625 
L 292.274936 433.51625 
L 292.274936 121.019906 
L 286.367617 121.019906 
z
" clip-path="url(#pc87ebe54b5)" style="fill: #4682b4; opacity: 0.7"/>
   </g>
   <g id="patch_99">
    <path d="M 293.751765 433.51625 
L 299.659083 433.51625 
L 299.659083 118.031266 
L 293.751765 118.031266 
z
" clip-path="url(#pc87ebe54b5)" style="fill: #4682b4; opacity: 0.7"/>
   </g>
   <g id="patch_100">
    <path d="M 301.135913 433.51625 
L 307.043231 433.51625 
L 307.043231 118.031266 
L 301.135913 118.031266 
z
" clip-path="url(#pc87ebe54b5)" style="fill: #4682b4; opacity: 0.7"/>
   </g>
   <g id="patch_101">
    <path d="M 308.520061 433.51625 
L 314.427379 433.51625 
L 314.427379 118.031266 
L 308.520061 118.031266 
z
" clip-path="url(#pc87ebe54b5)" style="fill: #4682b4; opacity: 0.7"/>
   </g>
   <g id="patch_102">
    <path d="M 315.904209 433.51625 
L 321.811527 433.51625 
L 321.811527 118.031266 
L 315.904209 118.031266 
z
" clip-path="url(#pc87ebe54b5)" style="fill: #4682b4; opacity: 0.7"/>
   </g>
   <g id="patch_103">
    <path d="M 323.288357 433.51625 
L 329.195675 433.51625 
L 329.195675 118.031266 
L 323.288357 118.031266 
z
" clip-path="url(#pc87ebe54b5)" style="fill: #4682b4; opacity: 0.7"/>
   </g>
   <g id="patch_104">
    <path d="M 330.672505 433.51625 
L 336.579823 433.51625 
L 336.579823 118.031266 
L 330.672505 118.031266 
z
" clip-path="url(#pc87ebe54b5)" style="fill: #4682b4; opacity: 0.7"/>
   </g>
   <g id="patch_105">
    <path d="M 338.056652 433.51625 
L 343.963971 433.51625 
L 343.963971 116.73973 
L 338.056652 116.73973 
z
" clip-path="url(#pc87ebe54b5)" style="fill: #4682b4; opacity: 0.7"/>
   </g>
   <g id="patch_106">
    <path d="M 345.4408 433.51625 
L 351.348119 433.51625 
L 351.348119 116.73973 
L 345.4408 116.73973 
z
" clip-path="url(#pc87ebe54b5)" style="fill: #4682b4; opacity: 0.7"/>
   </g>
   <g id="patch_107">
    <path d="M 352.824948 433.51625 
L 358.732267 433.51625 
L 358.732267 116.73973 
L 352.824948 116.73973 
z
" clip-path="url(#pc87ebe54b5)" style="fill: #4682b4; opacity: 0.7"/>
   </g>
   <g id="patch_108">
    <path d="M 360.209096 433.51625 
L 366.116414 433.51625 
L 366.116414 116.73973 
L 360.209096 116.73973 
z
" clip-path="url(#pc87ebe54b5)" style="fill: #4682b4; opacity: 0.7"/>
   </g>
   <g id="patch_109">
    <path d="M 367.593244 433.51625 
L 373.500562 433.51625 
L 373.500562 116.73973 
L 367.593244 116.73973 
z
" clip-path="url(#pc87ebe54b5)" style="fill: #4682b4; opacity: 0.7"/>
   </g>
   <g id="patch_110">
    <path d="M 374.977392 433.51625 
L 380.88471 433.51625 
L 380.88471 116.73973 
L 374.977392 116.73973 
z
" clip-path="url(#pc87ebe54b5)" style="fill: #4682b4; opacity: 0.7"/>
   </g>
   <g id="patch_111">
    <path d="M 382.36154 433.51625 
L 388.268858 433.51625 
L 388.268858 113.84698 
L 382.36154 113.84698 
z
" clip-path="url(#pc87ebe54b5)" style="fill: #4682b4; opacity: 0.7"/>
   </g>
   <g id="patch_112">
    <path d="M 389.745688 433.51625 
L 395.653006 433.51625 
L 395.653006 113.84698 
L 389.745688 113.84698 
z
" clip-path="url(#pc87ebe54b5)" style="fill: #4682b4; opacity: 0.7"/>
   </g>
   <g id="patch_113">
    <path d="M 397.129836 433.51625 
L 403.037154 433.51625 
L 403.037154 113.84698 
L 397.129836 113.84698 
z
" clip-path="url(#pc87ebe54b5)" style="fill: #4682b4; opacity: 0.7"/>
   </g>
   <g id="patch_114">
    <path d="M 404.513983 433.51625 
L 410.421302 433.51625 
L 410.421302 113.84698 
L 404.513983 113.84698 
z
" clip-path="url(#pc87ebe54b5)" style="fill: #4682b4; opacity: 0.7"/>
   </g>
   <g id="patch_115">
    <path d="M 411.898131 433.51625 
L 417.80545 433.51625 
L 417.80545 113.84698 
L 411.898131 113.84698 
z
" clip-path="url(#pc87ebe54b5)" style="fill: #4682b4; opacity: 0.7"/>
   </g>
   <g id="patch_116">
    <path d="M 419.282279 433.51625 
L 425.189598 433.51625 
L 425.189598 113.84698 
L 419.282279 113.84698 
z
" clip-path="url(#pc87ebe54b5)" style="fill: #4682b4; opacity: 0.7"/>
   </g>
   <g id="patch_117">
    <path d="M 426.666427 433.51625 
L 432.573745 433.51625 
L 432.573745 101.662304 
L 426.666427 101.662304 
z
" clip-path="url(#pc87ebe54b5)" style="fill: #4682b4; opacity: 0.7"/>
   </g>
   <g id="patch_118">
    <path d="M 434.050575 433.51625 
L 439.957893 433.51625 
L 439.957893 101.662304 
L 434.050575 101.662304 
z
" clip-path="url(#pc87ebe54b5)" style="fill: #4682b4; opacity: 0.7"/>
   </g>
   <g id="patch_119">
    <path d="M 441.434723 433.51625 
L 447.342041 433.51625 
L 447.342041 101.662304 
L 441.434723 101.662304 
z
" clip-path="url(#pc87ebe54b5)" style="fill: #4682b4; opacity: 0.7"/>
   </g>
   <g id="patch_120">
    <path d="M 448.818871 433.51625 
L 454.726189 433.51625 
L 454.726189 101.662304 
L 448.818871 101.662304 
z
" clip-path="url(#pc87ebe54b5)" style="fill: #4682b4; opacity: 0.7"/>
   </g>
   <g id="patch_121">
    <path d="M 456.203019 433.51625 
L 462.110337 433.51625 
L 462.110337 101.662304 
L 456.203019 101.662304 
z
" clip-path="url(#pc87ebe54b5)" style="fill: #4682b4; opacity: 0.7"/>
   </g>
   <g id="patch_122">
    <path d="M 463.587167 433.51625 
L 469.494485 433.51625 
L 469.494485 101.662304 
L 463.587167 101.662304 
z
" clip-path="url(#pc87ebe54b5)" style="fill: #4682b4; opacity: 0.7"/>
   </g>
   <g id="patch_123">
    <path d="M 470.971314 433.51625 
L 476.878633 433.51625 
L 476.878633 98.145024 
L 470.971314 98.145024 
z
" clip-path="url(#pc87ebe54b5)" style="fill: #4682b4; opacity: 0.7"/>
   </g>
   <g id="patch_124">
    <path d="M 478.355462 433.51625 
L 484.262781 433.51625 
L 484.262781 98.145024 
L 478.355462 98.145024 
z
" clip-path="url(#pc87ebe54b5)" style="fill: #4682b4; opacity: 0.7"/>
   </g>
   <g id="patch_125">
    <path d="M 485.73961 433.51625 
L 491.646928 433.51625 
L 491.646928 98.145024 
L 485.73961 98.145024 
z
" clip-path="url(#pc87ebe54b5)" style="fill: #4682b4; opacity: 0.7"/>
   </g>
   <g id="patch_126">
    <path d="M 493.123758 433.51625 
L 499.031076 433.51625 
L 499.031076 98.145024 
L 493.123758 98.145024 
z
" clip-path="url(#pc87ebe54b5)" style="fill: #4682b4; opacity: 0.7"/>
   </g>
   <g id="patch_127">
    <path d="M 500.507906 433.51625 
L 506.415224 433.51625 
L 506.415224 98.145024 
L 500.507906 98.145024 
z
" clip-path="url(#pc87ebe54b5)" style="fill: #4682b4; opacity: 0.7"/>
   </g>
   <g id="patch_128">
    <path d="M 507.892054 433.51625 
L 513.799372 433.51625 
L 513.799372 98.145024 
L 507.892054 98.145024 
z
" clip-path="url(#pc87ebe54b5)" style="fill: #4682b4; opacity: 0.7"/>
   </g>
   <g id="patch_129">
    <path d="M 515.276202 433.51625 
L 521.18352 433.51625 
L 521.18352 94.638962 
L 515.276202 94.638962 
z
" clip-path="url(#pc87ebe54b5)" style="fill: #4682b4; opacity: 0.7"/>
   </g>
   <g id="patch_130">
    <path d="M 522.66035 433.51625 
L 528.567668 433.51625 
L 528.567668 94.638962 
L 522.66035 94.638962 
z
" clip-path="url(#pc87ebe54b5)" style="fill: #4682b4; opacity: 0.7"/>
   </g>
   <g id="patch_131">
    <path d="M 530.044497 433.51625 
L 535.951816 433.51625 
L 535.951816 94.638962 
L 530.044497 94.638962 
z
" clip-path="url(#pc87ebe54b5)" style="fill: #4682b4; opacity: 0.7"/>
   </g>
   <g id="patch_132">
    <path d="M 537.428645 433.51625 
L 543.335964 433.51625 
L 543.335964 94.638962 
L 537.428645 94.638962 
z
" clip-path="url(#pc87ebe54b5)" style="fill: #4682b4; opacity: 0.7"/>
   </g>
   <g id="patch_133">
    <path d="M 544.812793 433.51625 
L 550.720112 433.51625 
L 550.720112 94.638962 
L 544.812793 94.638962 
z
" clip-path="url(#pc87ebe54b5)" style="fill: #4682b4; opacity: 0.7"/>
   </g>
   <g id="patch_134">
    <path d="M 552.196941 433.51625 
L 558.104259 433.51625 
L 558.104259 94.638962 
L 552.196941 94.638962 
z
" clip-path="url(#pc87ebe54b5)" style="fill: #4682b4; opacity: 0.7"/>
   </g>
   <g id="patch_135">
    <path d="M 559.581089 433.51625 
L 565.488407 433.51625 
L 565.488407 91.616895 
L 559.581089 91.616895 
z
" clip-path="url(#pc87ebe54b5)" style="fill: #4682b4; opacity: 0.7"/>
   </g>
   <g id="patch_136">
    <path d="M 566.965237 433.51625 
L 572.872555 433.51625 
L 572.872555 91.616895 
L 566.965237 91.616895 
z
" clip-path="url(#pc87ebe54b5)" style="fill: #4682b4; opacity: 0.7"/>
   </g>
   <g id="patch_137">
    <path d="M 574.349385 433.51625 
L 580.256703 433.51625 
L 580.256703 91.616895 
L 574.349385 91.616895 
z
" clip-path="url(#pc87ebe54b5)" style="fill: #4682b4; opacity: 0.7"/>
   </g>
   <g id="patch_138">
    <path d="M 581.733533 433.51625 
L 587.640851 433.51625 
L 587.640851 91.616895 
L 581.733533 91.616895 
z
" clip-path="url(#pc87ebe54b5)" style="fill: #4682b4; opacity: 0.7"/>
   </g>
   <g id="patch_139">
    <path d="M 589.117681 433.51625 
L 595.024999 433.51625 
L 595.024999 91.616895 
L 589.117681 91.616895 
z
" clip-path="url(#pc87ebe54b5)" style="fill: #4682b4; opacity: 0.7"/>
   </g>
   <g id="patch_140">
    <path d="M 596.501828 433.51625 
L 602.409147 433.51625 
L 602.409147 91.616895 
L 596.501828 91.616895 
z
" clip-path="url(#pc87ebe54b5)" style="fill: #4682b4; opacity: 0.7"/>
   </g>
   <g id="patch_141">
    <path d="M 603.885976 433.51625 
L 609.793295 433.51625 
L 609.793295 77.581829 
L 603.885976 77.581829 
z
" clip-path="url(#pc87ebe54b5)" style="fill: #4682b4; opacity: 0.7"/>
   </g>
   <g id="patch_142">
    <path d="M 611.270124 433.51625 
L 617.177443 433.51625 
L 617.177443 77.581829 
L 611.270124 77.581829 
z
" clip-path="url(#pc87ebe54b5)" style="fill: #4682b4; opacity: 0.7"/>
   </g>
   <g id="patch_143">
    <path d="M 618.654272 433.51625 
L 624.56159 433.51625 
L 624.56159 77.581829 
L 618.654272 77.581829 
z
" clip-path="url(#pc87ebe54b5)" style="fill: #4682b4; opacity: 0.7"/>
   </g>
   <g id="patch_144">
    <path d="M 626.03842 433.51625 
L 631.945738 433.51625 
L 631.945738 77.581829 
L 626.03842 77.581829 
z
" clip-path="url(#pc87ebe54b5)" style="fill: #4682b4; opacity: 0.7"/>
   </g>
   <g id="patch_145">
    <path d="M 633.422568 433.51625 
L 639.329886 433.51625 
L 639.329886 77.581829 
L 633.422568 77.581829 
z
" clip-path="url(#pc87ebe54b5)" style="fill: #4682b4; opacity: 0.7"/>
   </g>
   <g id="patch_146">
    <path d="M 640.806716 433.51625 
L 646.714034 433.51625 
L 646.714034 77.581829 
L 640.806716 77.581829 
z
" clip-path="url(#pc87ebe54b5)" style="fill: #4682b4; opacity: 0.7"/>
   </g>
   <g id="matplotlib.axis_1">
    <g id="xtick_1">
     <g id="line2d_1">
      <defs>
       <path id="mdbdb912ee6" d="M 0 0 
L 0 3.5 
" style="stroke: #000000; stroke-width: 0.8"/>
      </defs>
      <g>
       <use xlink:href="#mdbdb912ee6" x="119.485875" y="433.51625" style="stroke: #000000; stroke-width: 0.8"/>
      </g>
     </g>
     <g id="text_1">
      <!-- 0 -->
      <g transform="translate(107.546819 460.259997) rotate(-45) scale(0.2 -0.2)">
       <defs>
        <path id="DejaVuSans-30" d="M 2034 4250 
Q 1547 4250 1301 3770 
Q 1056 3291 1056 2328 
Q 1056 1369 1301 889 
Q 1547 409 2034 409 
Q 2525 409 2770 889 
Q 3016 1369 3016 2328 
Q 3016 3291 2770 3770 
Q 2525 4250 2034 4250 
z
M 2034 4750 
Q 2819 4750 3233 4129 
Q 3647 3509 3647 2328 
Q 3647 1150 3233 529 
Q 2819 -91 2034 -91 
Q 1250 -91 836 529 
Q 422 1150 422 2328 
Q 422 3509 836 4129 
Q 1250 4750 2034 4750 
z
" transform="scale(0.015625)"/>
       </defs>
       <use xlink:href="#DejaVuSans-30"/>
      </g>
     </g>
    </g>
    <g id="xtick_2">
     <g id="line2d_2">
      <g>
       <use xlink:href="#mdbdb912ee6" x="156.406614" y="433.51625" style="stroke: #000000; stroke-width: 0.8"/>
      </g>
     </g>
     <g id="text_2">
      <!-- 5 -->
      <g transform="translate(144.467558 460.259997) rotate(-45) scale(0.2 -0.2)">
       <defs>
        <path id="DejaVuSans-35" d="M 691 4666 
L 3169 4666 
L 3169 4134 
L 1269 4134 
L 1269 2991 
Q 1406 3038 1543 3061 
Q 1681 3084 1819 3084 
Q 2600 3084 3056 2656 
Q 3513 2228 3513 1497 
Q 3513 744 3044 326 
Q 2575 -91 1722 -91 
Q 1428 -91 1123 -41 
Q 819 9 494 109 
L 494 744 
Q 775 591 1075 516 
Q 1375 441 1709 441 
Q 2250 441 2565 725 
Q 2881 1009 2881 1497 
Q 2881 1984 2565 2268 
Q 2250 2553 1709 2553 
Q 1456 2553 1204 2497 
Q 953 2441 691 2322 
L 691 4666 
z
" transform="scale(0.015625)"/>
       </defs>
       <use xlink:href="#DejaVuSans-35"/>
      </g>
     </g>
    </g>
    <g id="xtick_3">
     <g id="line2d_3">
      <g>
       <use xlink:href="#mdbdb912ee6" x="193.327354" y="433.51625" style="stroke: #000000; stroke-width: 0.8"/>
      </g>
     </g>
     <g id="text_3">
      <!-- 10 -->
      <g transform="translate(172.390364 469.257931) rotate(-45) scale(0.2 -0.2)">
       <defs>
        <path id="DejaVuSans-31" d="M 794 531 
L 1825 531 
L 1825 4091 
L 703 3866 
L 703 4441 
L 1819 4666 
L 2450 4666 
L 2450 531 
L 3481 531 
L 3481 0 
L 794 0 
L 794 531 
z
" transform="scale(0.015625)"/>
       </defs>
       <use xlink:href="#DejaVuSans-31"/>
       <use xlink:href="#DejaVuSans-30" x="63.623047"/>
      </g>
     </g>
    </g>
    <g id="xtick_4">
     <g id="line2d_4">
      <g>
       <use xlink:href="#mdbdb912ee6" x="230.248093" y="433.51625" style="stroke: #000000; stroke-width: 0.8"/>
      </g>
     </g>
     <g id="text_4">
      <!-- 15 -->
      <g transform="translate(209.311103 469.257931) rotate(-45) scale(0.2 -0.2)">
       <use xlink:href="#DejaVuSans-31"/>
       <use xlink:href="#DejaVuSans-35" x="63.623047"/>
      </g>
     </g>
    </g>
    <g id="xtick_5">
     <g id="line2d_5">
      <g>
       <use xlink:href="#mdbdb912ee6" x="267.168833" y="433.51625" style="stroke: #000000; stroke-width: 0.8"/>
      </g>
     </g>
     <g id="text_5">
      <!-- 20 -->
      <g transform="translate(246.231843 469.257931) rotate(-45) scale(0.2 -0.2)">
       <defs>
        <path id="DejaVuSans-32" d="M 1228 531 
L 3431 531 
L 3431 0 
L 469 0 
L 469 531 
Q 828 903 1448 1529 
Q 2069 2156 2228 2338 
Q 2531 2678 2651 2914 
Q 2772 3150 2772 3378 
Q 2772 3750 2511 3984 
Q 2250 4219 1831 4219 
Q 1534 4219 1204 4116 
Q 875 4013 500 3803 
L 500 4441 
Q 881 4594 1212 4672 
Q 1544 4750 1819 4750 
Q 2544 4750 2975 4387 
Q 3406 4025 3406 3419 
Q 3406 3131 3298 2873 
Q 3191 2616 2906 2266 
Q 2828 2175 2409 1742 
Q 1991 1309 1228 531 
z
" transform="scale(0.015625)"/>
       </defs>
       <use xlink:href="#DejaVuSans-32"/>
       <use xlink:href="#DejaVuSans-30" x="63.623047"/>
      </g>
     </g>
    </g>
    <g id="xtick_6">
     <g id="line2d_6">
      <g>
       <use xlink:href="#mdbdb912ee6" x="304.089572" y="433.51625" style="stroke: #000000; stroke-width: 0.8"/>
      </g>
     </g>
     <g id="text_6">
      <!-- 25 -->
      <g transform="translate(283.152582 469.257931) rotate(-45) scale(0.2 -0.2)">
       <use xlink:href="#DejaVuSans-32"/>
       <use xlink:href="#DejaVuSans-35" x="63.623047"/>
      </g>
     </g>
    </g>
    <g id="xtick_7">
     <g id="line2d_7">
      <g>
       <use xlink:href="#mdbdb912ee6" x="341.010312" y="433.51625" style="stroke: #000000; stroke-width: 0.8"/>
      </g>
     </g>
     <g id="text_7">
      <!-- 30 -->
      <g transform="translate(320.073322 469.257931) rotate(-45) scale(0.2 -0.2)">
       <defs>
        <path id="DejaVuSans-33" d="M 2597 2516 
Q 3050 2419 3304 2112 
Q 3559 1806 3559 1356 
Q 3559 666 3084 287 
Q 2609 -91 1734 -91 
Q 1441 -91 1130 -33 
Q 819 25 488 141 
L 488 750 
Q 750 597 1062 519 
Q 1375 441 1716 441 
Q 2309 441 2620 675 
Q 2931 909 2931 1356 
Q 2931 1769 2642 2001 
Q 2353 2234 1838 2234 
L 1294 2234 
L 1294 2753 
L 1863 2753 
Q 2328 2753 2575 2939 
Q 2822 3125 2822 3475 
Q 2822 3834 2567 4026 
Q 2313 4219 1838 4219 
Q 1578 4219 1281 4162 
Q 984 4106 628 3988 
L 628 4550 
Q 988 4650 1302 4700 
Q 1616 4750 1894 4750 
Q 2613 4750 3031 4423 
Q 3450 4097 3450 3541 
Q 3450 3153 3228 2886 
Q 3006 2619 2597 2516 
z
" transform="scale(0.015625)"/>
       </defs>
       <use xlink:href="#DejaVuSans-33"/>
       <use xlink:href="#DejaVuSans-30" x="63.623047"/>
      </g>
     </g>
    </g>
    <g id="xtick_8">
     <g id="line2d_8">
      <g>
       <use xlink:href="#mdbdb912ee6" x="377.931051" y="433.51625" style="stroke: #000000; stroke-width: 0.8"/>
      </g>
     </g>
     <g id="text_8">
      <!-- 35 -->
      <g transform="translate(356.994061 469.257931) rotate(-45) scale(0.2 -0.2)">
       <use xlink:href="#DejaVuSans-33"/>
       <use xlink:href="#DejaVuSans-35" x="63.623047"/>
      </g>
     </g>
    </g>
    <g id="xtick_9">
     <g id="line2d_9">
      <g>
       <use xlink:href="#mdbdb912ee6" x="414.85179" y="433.51625" style="stroke: #000000; stroke-width: 0.8"/>
      </g>
     </g>
     <g id="text_9">
      <!-- 40 -->
      <g transform="translate(393.914801 469.257931) rotate(-45) scale(0.2 -0.2)">
       <defs>
        <path id="DejaVuSans-34" d="M 2419 4116 
L 825 1625 
L 2419 1625 
L 2419 4116 
z
M 2253 4666 
L 3047 4666 
L 3047 1625 
L 3713 1625 
L 3713 1100 
L 3047 1100 
L 3047 0 
L 2419 0 
L 2419 1100 
L 313 1100 
L 313 1709 
L 2253 4666 
z
" transform="scale(0.015625)"/>
       </defs>
       <use xlink:href="#DejaVuSans-34"/>
       <use xlink:href="#DejaVuSans-30" x="63.623047"/>
      </g>
     </g>
    </g>
    <g id="xtick_10">
     <g id="line2d_10">
      <g>
       <use xlink:href="#mdbdb912ee6" x="451.77253" y="433.51625" style="stroke: #000000; stroke-width: 0.8"/>
      </g>
     </g>
     <g id="text_10">
      <!-- 45 -->
      <g transform="translate(430.83554 469.257931) rotate(-45) scale(0.2 -0.2)">
       <use xlink:href="#DejaVuSans-34"/>
       <use xlink:href="#DejaVuSans-35" x="63.623047"/>
      </g>
     </g>
    </g>
    <g id="xtick_11">
     <g id="line2d_11">
      <g>
       <use xlink:href="#mdbdb912ee6" x="488.693269" y="433.51625" style="stroke: #000000; stroke-width: 0.8"/>
      </g>
     </g>
     <g id="text_11">
      <!-- 50 -->
      <g transform="translate(467.756279 469.257931) rotate(-45) scale(0.2 -0.2)">
       <use xlink:href="#DejaVuSans-35"/>
       <use xlink:href="#DejaVuSans-30" x="63.623047"/>
      </g>
     </g>
    </g>
    <g id="xtick_12">
     <g id="line2d_12">
      <g>
       <use xlink:href="#mdbdb912ee6" x="525.614009" y="433.51625" style="stroke: #000000; stroke-width: 0.8"/>
      </g>
     </g>
     <g id="text_12">
      <!-- 55 -->
      <g transform="translate(504.677019 469.257931) rotate(-45) scale(0.2 -0.2)">
       <use xlink:href="#DejaVuSans-35"/>
       <use xlink:href="#DejaVuSans-35" x="63.623047"/>
      </g>
     </g>
    </g>
    <g id="xtick_13">
     <g id="line2d_13">
      <g>
       <use xlink:href="#mdbdb912ee6" x="562.534748" y="433.51625" style="stroke: #000000; stroke-width: 0.8"/>
      </g>
     </g>
     <g id="text_13">
      <!-- 60 -->
      <g transform="translate(541.597758 469.257931) rotate(-45) scale(0.2 -0.2)">
       <defs>
        <path id="DejaVuSans-36" d="M 2113 2584 
Q 1688 2584 1439 2293 
Q 1191 2003 1191 1497 
Q 1191 994 1439 701 
Q 1688 409 2113 409 
Q 2538 409 2786 701 
Q 3034 994 3034 1497 
Q 3034 2003 2786 2293 
Q 2538 2584 2113 2584 
z
M 3366 4563 
L 3366 3988 
Q 3128 4100 2886 4159 
Q 2644 4219 2406 4219 
Q 1781 4219 1451 3797 
Q 1122 3375 1075 2522 
Q 1259 2794 1537 2939 
Q 1816 3084 2150 3084 
Q 2853 3084 3261 2657 
Q 3669 2231 3669 1497 
Q 3669 778 3244 343 
Q 2819 -91 2113 -91 
Q 1303 -91 875 529 
Q 447 1150 447 2328 
Q 447 3434 972 4092 
Q 1497 4750 2381 4750 
Q 2619 4750 2861 4703 
Q 3103 4656 3366 4563 
z
" transform="scale(0.015625)"/>
       </defs>
       <use xlink:href="#DejaVuSans-36"/>
       <use xlink:href="#DejaVuSans-30" x="63.623047"/>
      </g>
     </g>
    </g>
    <g id="xtick_14">
     <g id="line2d_14">
      <g>
       <use xlink:href="#mdbdb912ee6" x="599.455488" y="433.51625" style="stroke: #000000; stroke-width: 0.8"/>
      </g>
     </g>
     <g id="text_14">
      <!-- 65 -->
      <g transform="translate(578.518498 469.257931) rotate(-45) scale(0.2 -0.2)">
       <use xlink:href="#DejaVuSans-36"/>
       <use xlink:href="#DejaVuSans-35" x="63.623047"/>
      </g>
     </g>
    </g>
    <g id="xtick_15">
     <g id="line2d_15">
      <g>
       <use xlink:href="#mdbdb912ee6" x="636.376227" y="433.51625" style="stroke: #000000; stroke-width: 0.8"/>
      </g>
     </g>
     <g id="text_15">
      <!-- 70 -->
      <g transform="translate(615.439237 469.257931) rotate(-45) scale(0.2 -0.2)">
       <defs>
        <path id="DejaVuSans-37" d="M 525 4666 
L 3525 4666 
L 3525 4397 
L 1831 0 
L 1172 0 
L 2766 4134 
L 525 4134 
L 525 4666 
z
" transform="scale(0.015625)"/>
       </defs>
       <use xlink:href="#DejaVuSans-37"/>
       <use xlink:href="#DejaVuSans-30" x="63.623047"/>
      </g>
     </g>
    </g>
    <g id="text_16">
     <!-- Case ID -->
     <g transform="translate(339.491406 498.915616) scale(0.22 -0.22)">
      <defs>
       <path id="DejaVuSans-43" d="M 4122 4306 
L 4122 3641 
Q 3803 3938 3442 4084 
Q 3081 4231 2675 4231 
Q 1875 4231 1450 3742 
Q 1025 3253 1025 2328 
Q 1025 1406 1450 917 
Q 1875 428 2675 428 
Q 3081 428 3442 575 
Q 3803 722 4122 1019 
L 4122 359 
Q 3791 134 3420 21 
Q 3050 -91 2638 -91 
Q 1578 -91 968 557 
Q 359 1206 359 2328 
Q 359 3453 968 4101 
Q 1578 4750 2638 4750 
Q 3056 4750 3426 4639 
Q 3797 4528 4122 4306 
z
" transform="scale(0.015625)"/>
       <path id="DejaVuSans-61" d="M 2194 1759 
Q 1497 1759 1228 1600 
Q 959 1441 959 1056 
Q 959 750 1161 570 
Q 1363 391 1709 391 
Q 2188 391 2477 730 
Q 2766 1069 2766 1631 
L 2766 1759 
L 2194 1759 
z
M 3341 1997 
L 3341 0 
L 2766 0 
L 2766 531 
Q 2569 213 2275 61 
Q 1981 -91 1556 -91 
Q 1019 -91 701 211 
Q 384 513 384 1019 
Q 384 1609 779 1909 
Q 1175 2209 1959 2209 
L 2766 2209 
L 2766 2266 
Q 2766 2663 2505 2880 
Q 2244 3097 1772 3097 
Q 1472 3097 1187 3025 
Q 903 2953 641 2809 
L 641 3341 
Q 956 3463 1253 3523 
Q 1550 3584 1831 3584 
Q 2591 3584 2966 3190 
Q 3341 2797 3341 1997 
z
" transform="scale(0.015625)"/>
       <path id="DejaVuSans-73" d="M 2834 3397 
L 2834 2853 
Q 2591 2978 2328 3040 
Q 2066 3103 1784 3103 
Q 1356 3103 1142 2972 
Q 928 2841 928 2578 
Q 928 2378 1081 2264 
Q 1234 2150 1697 2047 
L 1894 2003 
Q 2506 1872 2764 1633 
Q 3022 1394 3022 966 
Q 3022 478 2636 193 
Q 2250 -91 1575 -91 
Q 1294 -91 989 -36 
Q 684 19 347 128 
L 347 722 
Q 666 556 975 473 
Q 1284 391 1588 391 
Q 1994 391 2212 530 
Q 2431 669 2431 922 
Q 2431 1156 2273 1281 
Q 2116 1406 1581 1522 
L 1381 1569 
Q 847 1681 609 1914 
Q 372 2147 372 2553 
Q 372 3047 722 3315 
Q 1072 3584 1716 3584 
Q 2034 3584 2315 3537 
Q 2597 3491 2834 3397 
z
" transform="scale(0.015625)"/>
       <path id="DejaVuSans-65" d="M 3597 1894 
L 3597 1613 
L 953 1613 
Q 991 1019 1311 708 
Q 1631 397 2203 397 
Q 2534 397 2845 478 
Q 3156 559 3463 722 
L 3463 178 
Q 3153 47 2828 -22 
Q 2503 -91 2169 -91 
Q 1331 -91 842 396 
Q 353 884 353 1716 
Q 353 2575 817 3079 
Q 1281 3584 2069 3584 
Q 2775 3584 3186 3129 
Q 3597 2675 3597 1894 
z
M 3022 2063 
Q 3016 2534 2758 2815 
Q 2500 3097 2075 3097 
Q 1594 3097 1305 2825 
Q 1016 2553 972 2059 
L 3022 2063 
z
" transform="scale(0.015625)"/>
       <path id="DejaVuSans-20" transform="scale(0.015625)"/>
       <path id="DejaVuSans-49" d="M 628 4666 
L 1259 4666 
L 1259 0 
L 628 0 
L 628 4666 
z
" transform="scale(0.015625)"/>
       <path id="DejaVuSans-44" d="M 1259 4147 
L 1259 519 
L 2022 519 
Q 2988 519 3436 956 
Q 3884 1394 3884 2338 
Q 3884 3275 3436 3711 
Q 2988 4147 2022 4147 
L 1259 4147 
z
M 628 4666 
L 1925 4666 
Q 3281 4666 3915 4102 
Q 4550 3538 4550 2338 
Q 4550 1131 3912 565 
Q 3275 0 1925 0 
L 628 0 
L 628 4666 
z
" transform="scale(0.015625)"/>
      </defs>
      <use xlink:href="#DejaVuSans-43"/>
      <use xlink:href="#DejaVuSans-61" x="69.824219"/>
      <use xlink:href="#DejaVuSans-73" x="131.103516"/>
      <use xlink:href="#DejaVuSans-65" x="183.203125"/>
      <use xlink:href="#DejaVuSans-20" x="244.726562"/>
      <use xlink:href="#DejaVuSans-49" x="276.513672"/>
      <use xlink:href="#DejaVuSans-44" x="306.005859"/>
     </g>
    </g>
   </g>
   <g id="matplotlib.axis_2">
    <g id="ytick_1">
     <g id="line2d_16">
      <defs>
       <path id="ma6b16df315" d="M 0 0 
L -3.5 0 
" style="stroke: #000000; stroke-width: 0.8"/>
      </defs>
      <g>
       <use xlink:href="#ma6b16df315" x="90.023125" y="433.51625" style="stroke: #000000; stroke-width: 0.8"/>
      </g>
     </g>
     <g id="text_17">
      <!-- 0.00 -->
      <g transform="translate(38.491875 441.114687) scale(0.2 -0.2)">
       <defs>
        <path id="DejaVuSans-2e" d="M 684 794 
L 1344 794 
L 1344 0 
L 684 0 
L 684 794 
z
" transform="scale(0.015625)"/>
       </defs>
       <use xlink:href="#DejaVuSans-30"/>
       <use xlink:href="#DejaVuSans-2e" x="63.623047"/>
       <use xlink:href="#DejaVuSans-30" x="95.410156"/>
       <use xlink:href="#DejaVuSans-30" x="159.033203"/>
      </g>
     </g>
    </g>
    <g id="ytick_2">
     <g id="line2d_17">
      <g>
       <use xlink:href="#ma6b16df315" x="90.023125" y="352.308508" style="stroke: #000000; stroke-width: 0.8"/>
      </g>
     </g>
     <g id="text_18">
      <!-- 0.02 -->
      <g transform="translate(38.491875 359.906945) scale(0.2 -0.2)">
       <use xlink:href="#DejaVuSans-30"/>
       <use xlink:href="#DejaVuSans-2e" x="63.623047"/>
       <use xlink:href="#DejaVuSans-30" x="95.410156"/>
       <use xlink:href="#DejaVuSans-32" x="159.033203"/>
      </g>
     </g>
    </g>
    <g id="ytick_3">
     <g id="line2d_18">
      <g>
       <use xlink:href="#ma6b16df315" x="90.023125" y="271.100765" style="stroke: #000000; stroke-width: 0.8"/>
      </g>
     </g>
     <g id="text_19">
      <!-- 0.04 -->
      <g transform="translate(38.491875 278.699203) scale(0.2 -0.2)">
       <use xlink:href="#DejaVuSans-30"/>
       <use xlink:href="#DejaVuSans-2e" x="63.623047"/>
       <use xlink:href="#DejaVuSans-30" x="95.410156"/>
       <use xlink:href="#DejaVuSans-34" x="159.033203"/>
      </g>
     </g>
    </g>
    <g id="ytick_4">
     <g id="line2d_19">
      <g>
       <use xlink:href="#ma6b16df315" x="90.023125" y="189.893023" style="stroke: #000000; stroke-width: 0.8"/>
      </g>
     </g>
     <g id="text_20">
      <!-- 0.06 -->
      <g transform="translate(38.491875 197.49146) scale(0.2 -0.2)">
       <use xlink:href="#DejaVuSans-30"/>
       <use xlink:href="#DejaVuSans-2e" x="63.623047"/>
       <use xlink:href="#DejaVuSans-30" x="95.410156"/>
       <use xlink:href="#DejaVuSans-36" x="159.033203"/>
      </g>
     </g>
    </g>
    <g id="ytick_5">
     <g id="line2d_20">
      <g>
       <use xlink:href="#ma6b16df315" x="90.023125" y="108.68528" style="stroke: #000000; stroke-width: 0.8"/>
      </g>
     </g>
     <g id="text_21">
      <!-- 0.08 -->
      <g transform="translate(38.491875 116.283718) scale(0.2 -0.2)">
       <defs>
        <path id="DejaVuSans-38" d="M 2034 2216 
Q 1584 2216 1326 1975 
Q 1069 1734 1069 1313 
Q 1069 891 1326 650 
Q 1584 409 2034 409 
Q 2484 409 2743 651 
Q 3003 894 3003 1313 
Q 3003 1734 2745 1975 
Q 2488 2216 2034 2216 
z
M 1403 2484 
Q 997 2584 770 2862 
Q 544 3141 544 3541 
Q 544 4100 942 4425 
Q 1341 4750 2034 4750 
Q 2731 4750 3128 4425 
Q 3525 4100 3525 3541 
Q 3525 3141 3298 2862 
Q 3072 2584 2669 2484 
Q 3125 2378 3379 2068 
Q 3634 1759 3634 1313 
Q 3634 634 3220 271 
Q 2806 -91 2034 -91 
Q 1263 -91 848 271 
Q 434 634 434 1313 
Q 434 1759 690 2068 
Q 947 2378 1403 2484 
z
M 1172 3481 
Q 1172 3119 1398 2916 
Q 1625 2713 2034 2713 
Q 2441 2713 2670 2916 
Q 2900 3119 2900 3481 
Q 2900 3844 2670 4047 
Q 2441 4250 2034 4250 
Q 1625 4250 1398 4047 
Q 1172 3844 1172 3481 
z
" transform="scale(0.015625)"/>
       </defs>
       <use xlink:href="#DejaVuSans-30"/>
       <use xlink:href="#DejaVuSans-2e" x="63.623047"/>
       <use xlink:href="#DejaVuSans-30" x="95.410156"/>
       <use xlink:href="#DejaVuSans-38" x="159.033203"/>
      </g>
     </g>
    </g>
    <g id="text_22">
     <!-- MSE Loss -->
     <g transform="translate(23.916563 290.524844) rotate(-90) scale(0.22 -0.22)">
      <defs>
       <path id="DejaVuSans-4d" d="M 628 4666 
L 1569 4666 
L 2759 1491 
L 3956 4666 
L 4897 4666 
L 4897 0 
L 4281 0 
L 4281 4097 
L 3078 897 
L 2444 897 
L 1241 4097 
L 1241 0 
L 628 0 
L 628 4666 
z
" transform="scale(0.015625)"/>
       <path id="DejaVuSans-53" d="M 3425 4513 
L 3425 3897 
Q 3066 4069 2747 4153 
Q 2428 4238 2131 4238 
Q 1616 4238 1336 4038 
Q 1056 3838 1056 3469 
Q 1056 3159 1242 3001 
Q 1428 2844 1947 2747 
L 2328 2669 
Q 3034 2534 3370 2195 
Q 3706 1856 3706 1288 
Q 3706 609 3251 259 
Q 2797 -91 1919 -91 
Q 1588 -91 1214 -16 
Q 841 59 441 206 
L 441 856 
Q 825 641 1194 531 
Q 1563 422 1919 422 
Q 2459 422 2753 634 
Q 3047 847 3047 1241 
Q 3047 1584 2836 1778 
Q 2625 1972 2144 2069 
L 1759 2144 
Q 1053 2284 737 2584 
Q 422 2884 422 3419 
Q 422 4038 858 4394 
Q 1294 4750 2059 4750 
Q 2388 4750 2728 4690 
Q 3069 4631 3425 4513 
z
" transform="scale(0.015625)"/>
       <path id="DejaVuSans-45" d="M 628 4666 
L 3578 4666 
L 3578 4134 
L 1259 4134 
L 1259 2753 
L 3481 2753 
L 3481 2222 
L 1259 2222 
L 1259 531 
L 3634 531 
L 3634 0 
L 628 0 
L 628 4666 
z
" transform="scale(0.015625)"/>
       <path id="DejaVuSans-4c" d="M 628 4666 
L 1259 4666 
L 1259 531 
L 3531 531 
L 3531 0 
L 628 0 
L 628 4666 
z
" transform="scale(0.015625)"/>
       <path id="DejaVuSans-6f" d="M 1959 3097 
Q 1497 3097 1228 2736 
Q 959 2375 959 1747 
Q 959 1119 1226 758 
Q 1494 397 1959 397 
Q 2419 397 2687 759 
Q 2956 1122 2956 1747 
Q 2956 2369 2687 2733 
Q 2419 3097 1959 3097 
z
M 1959 3584 
Q 2709 3584 3137 3096 
Q 3566 2609 3566 1747 
Q 3566 888 3137 398 
Q 2709 -91 1959 -91 
Q 1206 -91 779 398 
Q 353 888 353 1747 
Q 353 2609 779 3096 
Q 1206 3584 1959 3584 
z
" transform="scale(0.015625)"/>
      </defs>
      <use xlink:href="#DejaVuSans-4d"/>
      <use xlink:href="#DejaVuSans-53" x="86.279297"/>
      <use xlink:href="#DejaVuSans-45" x="149.755859"/>
      <use xlink:href="#DejaVuSans-20" x="212.939453"/>
      <use xlink:href="#DejaVuSans-4c" x="244.726562"/>
      <use xlink:href="#DejaVuSans-6f" x="298.689453"/>
      <use xlink:href="#DejaVuSans-73" x="359.871094"/>
      <use xlink:href="#DejaVuSans-73" x="411.970703"/>
     </g>
    </g>
   </g>
   <g id="patch_147">
    <path d="M 90.023125 433.51625 
L 90.023125 45.43625 
" style="fill: none; stroke: #000000; stroke-width: 0.8; stroke-linejoin: miter; stroke-linecap: square"/>
   </g>
   <g id="patch_148">
    <path d="M 673.223125 433.51625 
L 673.223125 45.43625 
" style="fill: none; stroke: #000000; stroke-width: 0.8; stroke-linejoin: miter; stroke-linecap: square"/>
   </g>
   <g id="patch_149">
    <path d="M 90.023125 433.51625 
L 673.223125 433.51625 
" style="fill: none; stroke: #000000; stroke-width: 0.8; stroke-linejoin: miter; stroke-linecap: square"/>
   </g>
   <g id="patch_150">
    <path d="M 90.023125 45.43625 
L 673.223125 45.43625 
" style="fill: none; stroke: #000000; stroke-width: 0.8; stroke-linejoin: miter; stroke-linecap: square"/>
   </g>
   <g id="text_23">
    <!-- Moment-small -->
    <g transform="translate(296.254375 25.43625) scale(0.24 -0.24)">
     <defs>
      <path id="DejaVuSans-6d" d="M 3328 2828 
Q 3544 3216 3844 3400 
Q 4144 3584 4550 3584 
Q 5097 3584 5394 3201 
Q 5691 2819 5691 2113 
L 5691 0 
L 5113 0 
L 5113 2094 
Q 5113 2597 4934 2840 
Q 4756 3084 4391 3084 
Q 3944 3084 3684 2787 
Q 3425 2491 3425 1978 
L 3425 0 
L 2847 0 
L 2847 2094 
Q 2847 2600 2669 2842 
Q 2491 3084 2119 3084 
Q 1678 3084 1418 2786 
Q 1159 2488 1159 1978 
L 1159 0 
L 581 0 
L 581 3500 
L 1159 3500 
L 1159 2956 
Q 1356 3278 1631 3431 
Q 1906 3584 2284 3584 
Q 2666 3584 2933 3390 
Q 3200 3197 3328 2828 
z
" transform="scale(0.015625)"/>
      <path id="DejaVuSans-6e" d="M 3513 2113 
L 3513 0 
L 2938 0 
L 2938 2094 
Q 2938 2591 2744 2837 
Q 2550 3084 2163 3084 
Q 1697 3084 1428 2787 
Q 1159 2491 1159 1978 
L 1159 0 
L 581 0 
L 581 3500 
L 1159 3500 
L 1159 2956 
Q 1366 3272 1645 3428 
Q 1925 3584 2291 3584 
Q 2894 3584 3203 3211 
Q 3513 2838 3513 2113 
z
" transform="scale(0.015625)"/>
      <path id="DejaVuSans-74" d="M 1172 4494 
L 1172 3500 
L 2356 3500 
L 2356 3053 
L 1172 3053 
L 1172 1153 
Q 1172 725 1289 603 
Q 1406 481 1766 481 
L 2356 481 
L 2356 0 
L 1766 0 
Q 1100 0 847 248 
Q 594 497 594 1153 
L 594 3053 
L 172 3053 
L 172 3500 
L 594 3500 
L 594 4494 
L 1172 4494 
z
" transform="scale(0.015625)"/>
      <path id="DejaVuSans-2d" d="M 313 2009 
L 1997 2009 
L 1997 1497 
L 313 1497 
L 313 2009 
z
" transform="scale(0.015625)"/>
      <path id="DejaVuSans-6c" d="M 603 4863 
L 1178 4863 
L 1178 0 
L 603 0 
L 603 4863 
z
" transform="scale(0.015625)"/>
     </defs>
     <use xlink:href="#DejaVuSans-4d"/>
     <use xlink:href="#DejaVuSans-6f" x="86.279297"/>
     <use xlink:href="#DejaVuSans-6d" x="147.460938"/>
     <use xlink:href="#DejaVuSans-65" x="244.873047"/>
     <use xlink:href="#DejaVuSans-6e" x="306.396484"/>
     <use xlink:href="#DejaVuSans-74" x="369.775391"/>
     <use xlink:href="#DejaVuSans-2d" x="408.984375"/>
     <use xlink:href="#DejaVuSans-73" x="445.068359"/>
     <use xlink:href="#DejaVuSans-6d" x="497.167969"/>
     <use xlink:href="#DejaVuSans-61" x="594.580078"/>
     <use xlink:href="#DejaVuSans-6c" x="655.859375"/>
     <use xlink:href="#DejaVuSans-6c" x="683.642578"/>
    </g>
   </g>
   <g id="legend_1">
    <g id="patch_151">
     <path d="M 693.864375 271.8325 
L 907.083125 271.8325 
Q 911.083125 271.8325 911.083125 267.8325 
L 911.083125 211.12 
Q 911.083125 207.12 907.083125 207.12 
L 693.864375 207.12 
Q 689.864375 207.12 689.864375 211.12 
L 689.864375 267.8325 
Q 689.864375 271.8325 693.864375 271.8325 
z
" style="fill: #ffffff; opacity: 0.8; stroke: #cccccc; stroke-linejoin: miter"/>
    </g>
    <g id="patch_152">
     <path d="M 697.864375 230.316875 
L 737.864375 230.316875 
L 737.864375 216.316875 
L 697.864375 216.316875 
z
" style="fill: #f08080; opacity: 0.7"/>
    </g>
    <g id="text_24">
     <!-- Before training -->
     <g transform="translate(753.864375 230.316875) scale(0.2 -0.2)">
      <defs>
       <path id="DejaVuSans-42" d="M 1259 2228 
L 1259 519 
L 2272 519 
Q 2781 519 3026 730 
Q 3272 941 3272 1375 
Q 3272 1813 3026 2020 
Q 2781 2228 2272 2228 
L 1259 2228 
z
M 1259 4147 
L 1259 2741 
L 2194 2741 
Q 2656 2741 2882 2914 
Q 3109 3088 3109 3444 
Q 3109 3797 2882 3972 
Q 2656 4147 2194 4147 
L 1259 4147 
z
M 628 4666 
L 2241 4666 
Q 2963 4666 3353 4366 
Q 3744 4066 3744 3513 
Q 3744 3084 3544 2831 
Q 3344 2578 2956 2516 
Q 3422 2416 3680 2098 
Q 3938 1781 3938 1306 
Q 3938 681 3513 340 
Q 3088 0 2303 0 
L 628 0 
L 628 4666 
z
" transform="scale(0.015625)"/>
       <path id="DejaVuSans-66" d="M 2375 4863 
L 2375 4384 
L 1825 4384 
Q 1516 4384 1395 4259 
Q 1275 4134 1275 3809 
L 1275 3500 
L 2222 3500 
L 2222 3053 
L 1275 3053 
L 1275 0 
L 697 0 
L 697 3053 
L 147 3053 
L 147 3500 
L 697 3500 
L 697 3744 
Q 697 4328 969 4595 
Q 1241 4863 1831 4863 
L 2375 4863 
z
" transform="scale(0.015625)"/>
       <path id="DejaVuSans-72" d="M 2631 2963 
Q 2534 3019 2420 3045 
Q 2306 3072 2169 3072 
Q 1681 3072 1420 2755 
Q 1159 2438 1159 1844 
L 1159 0 
L 581 0 
L 581 3500 
L 1159 3500 
L 1159 2956 
Q 1341 3275 1631 3429 
Q 1922 3584 2338 3584 
Q 2397 3584 2469 3576 
Q 2541 3569 2628 3553 
L 2631 2963 
z
" transform="scale(0.015625)"/>
       <path id="DejaVuSans-69" d="M 603 3500 
L 1178 3500 
L 1178 0 
L 603 0 
L 603 3500 
z
M 603 4863 
L 1178 4863 
L 1178 4134 
L 603 4134 
L 603 4863 
z
" transform="scale(0.015625)"/>
       <path id="DejaVuSans-67" d="M 2906 1791 
Q 2906 2416 2648 2759 
Q 2391 3103 1925 3103 
Q 1463 3103 1205 2759 
Q 947 2416 947 1791 
Q 947 1169 1205 825 
Q 1463 481 1925 481 
Q 2391 481 2648 825 
Q 2906 1169 2906 1791 
z
M 3481 434 
Q 3481 -459 3084 -895 
Q 2688 -1331 1869 -1331 
Q 1566 -1331 1297 -1286 
Q 1028 -1241 775 -1147 
L 775 -588 
Q 1028 -725 1275 -790 
Q 1522 -856 1778 -856 
Q 2344 -856 2625 -561 
Q 2906 -266 2906 331 
L 2906 616 
Q 2728 306 2450 153 
Q 2172 0 1784 0 
Q 1141 0 747 490 
Q 353 981 353 1791 
Q 353 2603 747 3093 
Q 1141 3584 1784 3584 
Q 2172 3584 2450 3431 
Q 2728 3278 2906 2969 
L 2906 3500 
L 3481 3500 
L 3481 434 
z
" transform="scale(0.015625)"/>
      </defs>
      <use xlink:href="#DejaVuSans-42"/>
      <use xlink:href="#DejaVuSans-65" x="68.603516"/>
      <use xlink:href="#DejaVuSans-66" x="130.126953"/>
      <use xlink:href="#DejaVuSans-6f" x="165.332031"/>
      <use xlink:href="#DejaVuSans-72" x="226.513672"/>
      <use xlink:href="#DejaVuSans-65" x="265.376953"/>
      <use xlink:href="#DejaVuSans-20" x="326.900391"/>
      <use xlink:href="#DejaVuSans-74" x="358.6875"/>
      <use xlink:href="#DejaVuSans-72" x="397.896484"/>
      <use xlink:href="#DejaVuSans-61" x="439.009766"/>
      <use xlink:href="#DejaVuSans-69" x="500.289062"/>
      <use xlink:href="#DejaVuSans-6e" x="528.072266"/>
      <use xlink:href="#DejaVuSans-69" x="591.451172"/>
      <use xlink:href="#DejaVuSans-6e" x="619.234375"/>
      <use xlink:href="#DejaVuSans-67" x="682.613281"/>
     </g>
    </g>
    <g id="patch_153">
     <path d="M 697.864375 259.673125 
L 737.864375 259.673125 
L 737.864375 245.673125 
L 697.864375 245.673125 
z
" style="fill: #4682b4; opacity: 0.7"/>
    </g>
    <g id="text_25">
     <!-- After training -->
     <g transform="translate(753.864375 259.673125) scale(0.2 -0.2)">
      <defs>
       <path id="DejaVuSans-41" d="M 2188 4044 
L 1331 1722 
L 3047 1722 
L 2188 4044 
z
M 1831 4666 
L 2547 4666 
L 4325 0 
L 3669 0 
L 3244 1197 
L 1141 1197 
L 716 0 
L 50 0 
L 1831 4666 
z
" transform="scale(0.015625)"/>
      </defs>
      <use xlink:href="#DejaVuSans-41"/>
      <use xlink:href="#DejaVuSans-66" x="64.783203"/>
      <use xlink:href="#DejaVuSans-74" x="98.238281"/>
      <use xlink:href="#DejaVuSans-65" x="137.447266"/>
      <use xlink:href="#DejaVuSans-72" x="198.970703"/>
      <use xlink:href="#DejaVuSans-20" x="240.083984"/>
      <use xlink:href="#DejaVuSans-74" x="271.871094"/>
      <use xlink:href="#DejaVuSans-72" x="311.080078"/>
      <use xlink:href="#DejaVuSans-61" x="352.193359"/>
      <use xlink:href="#DejaVuSans-69" x="413.472656"/>
      <use xlink:href="#DejaVuSans-6e" x="441.255859"/>
      <use xlink:href="#DejaVuSans-69" x="504.634766"/>
      <use xlink:href="#DejaVuSans-6e" x="532.417969"/>
      <use xlink:href="#DejaVuSans-67" x="595.796875"/>
     </g>
    </g>
   </g>
  </g>
 </g>
 <defs>
  <clipPath id="pc87ebe54b5">
   <rect x="90.023125" y="45.43625" width="583.2" height="388.08"/>
  </clipPath>
 </defs>
</svg>
